<?xml version="1.0" encoding="utf-8"?>
<!-- Generator: Adobe Illustrator 26.3.1, SVG Export Plug-In . SVG Version: 6.00 Build 0)  -->
<svg version="1.1" id="图层_1" xmlns="http://www.w3.org/2000/svg" xmlns:xlink="http://www.w3.org/1999/xlink" x="0px" y="0px"
	 viewBox="0 0 469 150" enable-background="new 0 0 469 150" xml:space="preserve">
<g>
	<polygon fill="#ED6C36" points="12.22,108.3 48.26,47.14 62.06,94.67 44.04,102.46 	"/>
	<g>
		<path fill="#ED6C36" d="M68.43,92.32L53.15,43.31c0,0,10.31-8.22,34.81-8.03c24.51,0.2,33.33,8.68,33.33,8.68l-14.65,48.36H68.43z
			"/>
	</g>
	<polygon fill="#ED6C36" points="77.27,125.23 70.2,98.1 105.11,98.1 96.85,125.23 	"/>
	<polygon fill="#ED6C36" points="67.72,131.26 48.02,106.44 63.59,99.98 73.26,127.11 	"/>
	<polyline fill="#9AA8AD" points="37.78,118.76 64.88,133.91 42.79,107.4 13.34,112.31 	"/>
	<g>
		<path fill="#ED6C36" d="M44.22,43.52c0,0-12.62-30.77-36.48-40.45c0,0-17.29,55.82,10.34,83.56L44.22,43.52z"/>
		<path fill="#5C6D72" d="M95.95,129.18l-19.25-0.04l-9.55,7.43c7.77,10.22,18.57,11.37,24.16,8.12L95.95,129.18z"/>
		<path fill="#5C6D72" d="M76.41,129.18l19.25-0.04l9.55,7.43c-7.77,10.22-18.57,11.37-24.16,8.12L76.41,129.18z"/>
	</g>
	<g>
		<path fill="#5C6D72" d="M464.88,127.3c0-2.99-2.09-5.81-6.1-5.81h-2.44c-7.67,0-12.21-3.82-12.21-11.63V72.65h14.3
			c4.01,0,6.1-2.99,6.1-5.82c0-2.99-2.09-5.81-6.1-5.81h-14.3V37.76c0-3.82-3.14-5.81-6.1-5.81c-3.14,0-6.1,1.99-6.1,5.81v23.26
			h-7.85c-4.01,0-6.1,2.99-6.1,5.81c0,2.99,2.09,5.82,6.1,5.82h7.85v37.21c0,14.62,10.46,23.26,24.42,23.26h2.44
			C462.79,133.11,464.88,130.12,464.88,127.3 M410.39,67c0-2.82-2.09-5.98-6.11-5.98h-13.95c-4.71,0-9.24,0.5-12.91,3.16
			c-1.05-1.83-3.14-3.49-5.41-3.49c-3.66,0-6.1,2.33-6.1,5.81v61.13c0,2.99,2.09,5.82,6.1,5.82c3.66,0,6.11-2.33,6.11-5.82V84.27
			c0-7.64,4.88-11.46,12.21-11.46h13.95C408.3,72.81,410.39,69.99,410.39,67 M337.73,91.09h-43.61v-6.81
			c0-7.64,4.88-11.63,12.21-11.63h19.19c7.68,0,12.21,3.82,12.21,11.63V91.09z M349.94,93.41v-9.14c0-14.62-10.47-23.26-24.42-23.26
			h-19.19c-13.61,0-24.42,8.64-24.42,23.26v25.42c0,14.62,10.81,23.26,24.42,23.26h18.32c12.56,0,21.45-6.64,24.42-16.28
			c0.17-0.66,0.35-1.33,0.35-1.99c0-3.49-3.14-5.48-6.28-5.48c-2.44,0-4.88,1.16-5.76,4.15c-1.4,4.32-5.41,7.97-12.73,7.97h-18.32
			c-7.33,0-12.21-3.99-12.21-11.63v-6.98h46.22C344.88,102.71,349.94,99.23,349.94,93.41 M274.53,127.13c0-2.99-1.99-5.81-5.98-5.81
			h-41.53v-81.4c0-3.99-2.99-5.98-5.82-5.98c-2.99,0-5.81,1.99-5.81,5.98v87.21c0,3.16,2.66,5.81,5.81,5.81h47.35
			C272.53,132.95,274.53,129.96,274.53,127.13"/>
		<path fill="#ED6C36" d="M182.5,111.63c0,7.69-4.78,11.7-12.87,11.7h-20.4c-9.01,0-12.87-3.51-12.87-9.36
			c0-6.18,2.21-8.69,11.4-9.52c0.18,0,22.79-2.17,29.04-2.84c2.02-0.17,3.86-0.5,5.7-1.17v0.67V111.63z M203.08,129.5
			c0-1.84-1.1-3.84-3.49-5.01c-4.04-2.01-4.23-5.68-4.23-9.52v-0.33v-1.34V85.9c0-14.2-10.66-23.39-25.36-23.39h-18.01
			c-10.84,0-22.05,4.01-25.55,15.87c-0.18,0.67-0.37,1.34-0.37,1.84c0,3.51,3.49,5.51,6.8,5.51c2.57,0,4.96-1.34,5.88-4.34
			c1.29-4.68,5.51-7.18,13.23-7.18H170c6.98,0,11.95,3.17,12.31,9.52c0,0,0.18,0.5,0.18,0.84c0,0.33-0.18,0.5-0.18,0.83
			c-0.92,3.17-3.49,4.35-7.17,4.68c-6.25,0.67-28.49,2.67-28.67,2.67c-13.97,1.17-22.97,7.52-22.97,21.22
			c0,14.37,12.13,21.05,25.73,21.05h20.22c6.8,0,12.87-1.84,17.28-5.35c1.65,2.17,4.04,3.84,6.98,5.18c1.1,0.5,2.21,0.84,3.12,0.84
			C200.51,135.69,203.08,132.51,203.08,129.5"/>
	</g>
</g>
</svg>
