<svg width="20" height="12" viewBox="0 0 20 12" fill="none" xmlns="http://www.w3.org/2000/svg">
<path id="Union" fill-rule="evenodd" clip-rule="evenodd" d="M13.0914 7.3905C12.3676 7.59208 11.6117 7.7231 10.8374 7.77533L10.8374 10.5608C10.8374 11.0611 10.4306 11.4679 9.92114 11.4679C9.67955 11.4679 9.44773 11.3725 9.27613 11.2025C9.10453 11.0324 9.00704 10.8015 9.00486 10.5599L9.00486 7.75426C8.33718 7.69338 7.67633 7.57255 7.0303 7.39325L5.53311 10.6048C5.48218 10.7133 5.41033 10.8106 5.32168 10.8913C5.23303 10.9719 5.12932 11.0342 5.01651 11.0747C4.9037 11.1151 4.78401 11.1329 4.66432 11.1269C4.54463 11.121 4.42729 11.0914 4.31904 11.04C4.09995 10.938 3.93003 10.7536 3.84628 10.5269C3.76253 10.3002 3.77174 10.0496 3.87191 9.82962L5.30862 6.75094C4.81933 6.5182 4.35203 6.24974 3.91222 5.94737L1.5574 8.30219C1.47244 8.38663 1.37165 8.45346 1.26081 8.49885C1.14996 8.54425 1.03124 8.56731 0.911467 8.56671C0.79169 8.56612 0.673209 8.54188 0.562821 8.49538C0.452433 8.44889 0.352311 8.38105 0.268201 8.29578C0.0975234 8.12506 0.00110691 7.89389 -9.28375e-05 7.6525C-0.00129449 7.4111 0.092816 7.17898 0.261788 7.00658L2.50299 4.76538C2.36383 4.62322 2.22937 4.47654 2.09983 4.32556C1.44516 3.56902 0.931818 2.70094 0.584314 1.76275C0.500719 1.53456 0.511194 1.28251 0.613436 1.06205C0.715677 0.841585 0.90131 0.670766 1.1295 0.587171C1.35768 0.503575 1.60973 0.51405 1.8302 0.616292C2.05066 0.718533 2.22148 0.904166 2.30507 1.13235C2.57728 1.86446 2.97889 2.54167 3.49073 3.13166C5.00625 4.89732 7.41971 5.97027 10.0558 5.97027C12.691 5.97027 15.1045 4.89823 16.62 3.13166C17.1319 2.54167 17.5335 1.86446 17.8057 1.13235C17.8471 1.01937 17.9103 0.915637 17.9918 0.827091C18.0733 0.738545 18.1714 0.666915 18.2805 0.61629C18.3897 0.565666 18.5078 0.537037 18.628 0.532041C18.7482 0.527044 18.8683 0.545777 18.9812 0.587169C19.0942 0.628561 19.198 0.691803 19.2865 0.773283C19.375 0.854762 19.4467 0.952885 19.4973 1.06205C19.5479 1.17121 19.5766 1.28927 19.5816 1.4095C19.5866 1.52973 19.5678 1.64976 19.5264 1.76275C19.1789 2.70094 18.6656 3.56902 18.0109 4.32556C17.8632 4.49576 17.7098 4.6605 17.5511 4.81953L19.7381 7.00652C19.9071 7.17893 20.0012 7.41104 20 7.65244C19.9988 7.89384 19.9024 8.12501 19.7317 8.29572C19.6476 8.38114 19.5474 8.44909 19.4369 8.49566C19.3264 8.54224 19.2079 8.56652 19.088 8.56712C18.9681 8.56771 18.8493 8.54461 18.7383 8.49913C18.6274 8.45366 18.5266 8.38671 18.4416 8.30213L16.1328 5.99338C15.7143 6.27745 15.2732 6.52908 14.8131 6.74544L16.2517 9.83053C16.3515 10.0504 16.3606 10.3008 16.2769 10.5272C16.1931 10.7537 16.0234 10.938 15.8045 11.04C15.6963 11.0914 15.5789 11.121 15.4592 11.1269C15.3396 11.1329 15.2199 11.1151 15.1071 11.0747C14.9943 11.0342 14.8905 10.9719 14.8019 10.8913C14.7132 10.8106 14.6414 10.7133 14.5905 10.6048L13.0914 7.3905Z" fill="black"/>
</svg>
