<svg width="207" height="136" viewBox="0 0 207 136" fill="none" xmlns="http://www.w3.org/2000/svg">
<path d="M42.4526 39.817C30.4756 39.817 6 58.3409 6 58.3409V88H177V25.2458C177 25.2458 171.442 19.8952 162.654 18.1626C146.814 15.0395 143.899 57.9533 129.983 57.9534C119.762 57.9534 119.76 23.593 106.132 22.2944C92.5033 20.9959 93.4329 53.77 71.4628 53.4012C55.0047 53.1249 51.7081 39.817 42.4526 39.817Z" fill="url(#paint0_linear_285_544)"/>
<path d="M7 59C7 59 30.4583 39.9352 42.3959 39.9352C52.3312 39.9352 54.9068 53.3174 71.3109 53.5947C93.2088 53.965 92.7808 21.0043 106.365 22.3079C119.948 23.6115 120.652 59 130.84 59C144.709 59 146.913 15.0248 162.701 18.16C171.461 19.8994 177 25.2707 177 25.2707" stroke="url(#paint1_linear_285_544)" stroke-width="3" stroke-linecap="round"/>
<g filter="url(#filter0_d_285_544)">
<circle cx="177" cy="25" r="5" fill="white"/>
<circle cx="177" cy="25" r="4" stroke="#6C54FF" stroke-width="2"/>
</g>
<path d="M2.41406 102.529H1.22656L1.23438 101.916H2.41406C2.82031 101.916 3.15885 101.831 3.42969 101.662C3.70052 101.49 3.90365 101.251 4.03906 100.943C4.17708 100.633 4.24609 100.271 4.24609 99.8574V99.5098C4.24609 99.1842 4.20703 98.8952 4.12891 98.6426C4.05078 98.3874 3.9362 98.1725 3.78516 97.998C3.63411 97.821 3.44922 97.6868 3.23047 97.5957C3.01432 97.5046 2.76562 97.459 2.48438 97.459H1.20312V96.8418H2.48438C2.85677 96.8418 3.19661 96.9043 3.50391 97.0293C3.8112 97.1517 4.07552 97.3301 4.29688 97.5645C4.52083 97.7962 4.69271 98.0775 4.8125 98.4082C4.93229 98.7363 4.99219 99.1061 4.99219 99.5176V99.8574C4.99219 100.269 4.93229 100.64 4.8125 100.971C4.69271 101.299 4.51953 101.579 4.29297 101.811C4.06901 102.042 3.79818 102.221 3.48047 102.346C3.16536 102.468 2.8099 102.529 2.41406 102.529ZM1.62891 96.8418V102.529H0.875V96.8418H1.62891ZM7.76953 102.607C7.47526 102.607 7.20833 102.558 6.96875 102.459C6.73177 102.357 6.52734 102.215 6.35547 102.033C6.1862 101.851 6.05599 101.635 5.96484 101.385C5.8737 101.135 5.82812 100.861 5.82812 100.564V100.4C5.82812 100.057 5.87891 99.7507 5.98047 99.4824C6.08203 99.2116 6.22005 98.9824 6.39453 98.7949C6.56901 98.6074 6.76693 98.4655 6.98828 98.3691C7.20964 98.2728 7.4388 98.2246 7.67578 98.2246C7.97786 98.2246 8.23828 98.2767 8.45703 98.3809C8.67839 98.485 8.85938 98.6309 9 98.8184C9.14062 99.0033 9.24479 99.222 9.3125 99.4746C9.38021 99.7246 9.41406 99.998 9.41406 100.295V100.619H6.25781V100.029H8.69141V99.9746C8.68099 99.7871 8.64193 99.6048 8.57422 99.4277C8.50911 99.2507 8.40495 99.1048 8.26172 98.9902C8.11849 98.8757 7.92318 98.8184 7.67578 98.8184C7.51172 98.8184 7.36068 98.8535 7.22266 98.9238C7.08464 98.9915 6.96615 99.0931 6.86719 99.2285C6.76823 99.3639 6.69141 99.5293 6.63672 99.7246C6.58203 99.9199 6.55469 100.145 6.55469 100.4V100.564C6.55469 100.765 6.58203 100.954 6.63672 101.131C6.69401 101.305 6.77604 101.459 6.88281 101.592C6.99219 101.725 7.1237 101.829 7.27734 101.904C7.43359 101.98 7.61068 102.018 7.80859 102.018C8.0638 102.018 8.27995 101.965 8.45703 101.861C8.63411 101.757 8.78906 101.618 8.92188 101.443L9.35938 101.791C9.26823 101.929 9.15234 102.061 9.01172 102.186C8.87109 102.311 8.69792 102.412 8.49219 102.49C8.28906 102.568 8.04818 102.607 7.76953 102.607ZM13.4062 101.936V102.529H10.332V101.936H13.4062ZM13.293 98.8145L10.4961 102.529H10.0547V101.998L12.832 98.3027H13.293V98.8145ZM12.9727 98.3027V98.9004H10.0859V98.3027H12.9727ZM14.2383 102.146C14.2383 102.024 14.276 101.921 14.3516 101.838C14.4297 101.752 14.5417 101.709 14.6875 101.709C14.8333 101.709 14.944 101.752 15.0195 101.838C15.0977 101.921 15.1367 102.024 15.1367 102.146C15.1367 102.266 15.0977 102.368 15.0195 102.451C14.944 102.535 14.8333 102.576 14.6875 102.576C14.5417 102.576 14.4297 102.535 14.3516 102.451C14.276 102.368 14.2383 102.266 14.2383 102.146Z" fill="#5C6D72"/>
<path d="M31.3984 100.869V96.8418H32.1484V100.869C32.1484 101.244 32.0716 101.561 31.918 101.818C31.7643 102.076 31.5521 102.273 31.2812 102.408C31.013 102.541 30.7044 102.607 30.3555 102.607C30.0065 102.607 29.6966 102.548 29.4258 102.428C29.1549 102.308 28.9427 102.126 28.7891 101.881C28.6354 101.636 28.5586 101.327 28.5586 100.955H29.3125C29.3125 101.195 29.3568 101.391 29.4453 101.545C29.5339 101.699 29.6562 101.812 29.8125 101.885C29.9714 101.958 30.1523 101.994 30.3555 101.994C30.5534 101.994 30.7305 101.952 30.8867 101.869C31.0456 101.783 31.1706 101.657 31.2617 101.49C31.3529 101.321 31.3984 101.114 31.3984 100.869ZM35.8086 101.807V99.6309C35.8086 99.4642 35.7747 99.3197 35.707 99.1973C35.6419 99.0723 35.543 98.9759 35.4102 98.9082C35.2773 98.8405 35.1133 98.8066 34.918 98.8066C34.7357 98.8066 34.5755 98.8379 34.4375 98.9004C34.3021 98.9629 34.1953 99.0449 34.1172 99.1465C34.0417 99.248 34.0039 99.3574 34.0039 99.4746H33.2812C33.2812 99.3236 33.3203 99.1738 33.3984 99.0254C33.4766 98.877 33.5885 98.7428 33.7344 98.623C33.8828 98.5007 34.0599 98.4043 34.2656 98.334C34.474 98.2611 34.7057 98.2246 34.9609 98.2246C35.2682 98.2246 35.5391 98.2767 35.7734 98.3809C36.0104 98.485 36.1953 98.6426 36.3281 98.8535C36.4635 99.0618 36.5312 99.3236 36.5312 99.6387V101.607C36.5312 101.748 36.543 101.898 36.5664 102.057C36.5924 102.215 36.6302 102.352 36.6797 102.467V102.529H35.9258C35.8893 102.446 35.8607 102.335 35.8398 102.197C35.819 102.057 35.8086 101.926 35.8086 101.807ZM35.9336 99.9668L35.9414 100.475H35.2109C35.0052 100.475 34.8216 100.492 34.6602 100.525C34.4987 100.557 34.3633 100.605 34.2539 100.67C34.1445 100.735 34.0612 100.817 34.0039 100.916C33.9466 101.012 33.918 101.126 33.918 101.256C33.918 101.389 33.9479 101.51 34.0078 101.619C34.0677 101.729 34.1576 101.816 34.2773 101.881C34.3997 101.943 34.5495 101.975 34.7266 101.975C34.9479 101.975 35.1432 101.928 35.3125 101.834C35.4818 101.74 35.6159 101.626 35.7148 101.49C35.8164 101.355 35.8711 101.223 35.8789 101.096L36.1875 101.443C36.1693 101.553 36.1198 101.674 36.0391 101.807C35.9583 101.939 35.8503 102.067 35.7148 102.189C35.582 102.309 35.4232 102.41 35.2383 102.49C35.056 102.568 34.8503 102.607 34.6211 102.607C34.3346 102.607 34.0833 102.551 33.8672 102.439C33.6536 102.327 33.487 102.178 33.3672 101.99C33.25 101.8 33.1914 101.588 33.1914 101.354C33.1914 101.127 33.2357 100.928 33.3242 100.756C33.4128 100.581 33.5404 100.437 33.707 100.322C33.8737 100.205 34.0742 100.117 34.3086 100.057C34.543 99.9967 34.8047 99.9668 35.0938 99.9668H35.9336ZM38.3906 99.2051V102.529H37.668V98.3027H38.3516L38.3906 99.2051ZM38.2188 100.256L37.918 100.244C37.9206 99.9551 37.9635 99.6882 38.0469 99.4434C38.1302 99.196 38.2474 98.9811 38.3984 98.7988C38.5495 98.6165 38.7292 98.4759 38.9375 98.377C39.1484 98.2754 39.3815 98.2246 39.6367 98.2246C39.8451 98.2246 40.0326 98.2533 40.1992 98.3105C40.3659 98.3652 40.5078 98.4538 40.625 98.5762C40.7448 98.6986 40.8359 98.8574 40.8984 99.0527C40.9609 99.2454 40.9922 99.4811 40.9922 99.7598V102.529H40.2656V99.752C40.2656 99.5306 40.2331 99.3535 40.168 99.2207C40.1029 99.0853 40.0078 98.9876 39.8828 98.9277C39.7578 98.8652 39.6042 98.834 39.4219 98.834C39.2422 98.834 39.0781 98.8717 38.9297 98.9473C38.7839 99.0228 38.6576 99.127 38.5508 99.2598C38.4466 99.3926 38.3646 99.5449 38.3047 99.7168C38.2474 99.8861 38.2188 100.066 38.2188 100.256ZM42.1016 102.146C42.1016 102.024 42.1393 101.921 42.2148 101.838C42.293 101.752 42.4049 101.709 42.5508 101.709C42.6966 101.709 42.8073 101.752 42.8828 101.838C42.9609 101.921 43 102.024 43 102.146C43 102.266 42.9609 102.368 42.8828 102.451C42.8073 102.535 42.6966 102.576 42.5508 102.576C42.4049 102.576 42.293 102.535 42.2148 102.451C42.1393 102.368 42.1016 102.266 42.1016 102.146Z" fill="#5C6D72"/>
<path d="M57.8242 96.8418V102.529H57.0703V96.8418H57.8242ZM60.207 99.4004V100.018H57.6602V99.4004H60.207ZM60.5938 96.8418V97.459H57.6602V96.8418H60.5938ZM63.0508 102.607C62.7565 102.607 62.4896 102.558 62.25 102.459C62.013 102.357 61.8086 102.215 61.6367 102.033C61.4674 101.851 61.3372 101.635 61.2461 101.385C61.1549 101.135 61.1094 100.861 61.1094 100.564V100.4C61.1094 100.057 61.1602 99.7507 61.2617 99.4824C61.3633 99.2116 61.5013 98.9824 61.6758 98.7949C61.8503 98.6074 62.0482 98.4655 62.2695 98.3691C62.4909 98.2728 62.7201 98.2246 62.957 98.2246C63.2591 98.2246 63.5195 98.2767 63.7383 98.3809C63.9596 98.485 64.1406 98.6309 64.2812 98.8184C64.4219 99.0033 64.526 99.222 64.5938 99.4746C64.6615 99.7246 64.6953 99.998 64.6953 100.295V100.619H61.5391V100.029H63.9727V99.9746C63.9622 99.7871 63.9232 99.6048 63.8555 99.4277C63.7904 99.2507 63.6862 99.1048 63.543 98.9902C63.3997 98.8757 63.2044 98.8184 62.957 98.8184C62.793 98.8184 62.6419 98.8535 62.5039 98.9238C62.3659 98.9915 62.2474 99.0931 62.1484 99.2285C62.0495 99.3639 61.9727 99.5293 61.918 99.7246C61.8633 99.9199 61.8359 100.145 61.8359 100.4V100.564C61.8359 100.765 61.8633 100.954 61.918 101.131C61.9753 101.305 62.0573 101.459 62.1641 101.592C62.2734 101.725 62.4049 101.829 62.5586 101.904C62.7148 101.98 62.8919 102.018 63.0898 102.018C63.3451 102.018 63.5612 101.965 63.7383 101.861C63.9154 101.757 64.0703 101.618 64.2031 101.443L64.6406 101.791C64.5495 101.929 64.4336 102.061 64.293 102.186C64.1523 102.311 63.9792 102.412 63.7734 102.49C63.5703 102.568 63.3294 102.607 63.0508 102.607ZM65.5352 96.5293H66.2617V101.709L66.1992 102.529H65.5352V96.5293ZM69.1172 100.381V100.463C69.1172 100.77 69.0807 101.055 69.0078 101.318C68.9349 101.579 68.8281 101.805 68.6875 101.998C68.5469 102.191 68.375 102.34 68.1719 102.447C67.9688 102.554 67.7357 102.607 67.4727 102.607C67.2044 102.607 66.9688 102.562 66.7656 102.471C66.5651 102.377 66.3958 102.243 66.2578 102.068C66.1198 101.894 66.0091 101.683 65.9258 101.436C65.8451 101.188 65.7891 100.91 65.7578 100.6V100.24C65.7891 99.9277 65.8451 99.6478 65.9258 99.4004C66.0091 99.153 66.1198 98.9421 66.2578 98.7676C66.3958 98.5905 66.5651 98.4564 66.7656 98.3652C66.9661 98.2715 67.1992 98.2246 67.4648 98.2246C67.7305 98.2246 67.9661 98.2767 68.1719 98.3809C68.3776 98.4824 68.5495 98.6283 68.6875 98.8184C68.8281 99.0085 68.9349 99.2363 69.0078 99.502C69.0807 99.765 69.1172 100.058 69.1172 100.381ZM68.3906 100.463V100.381C68.3906 100.17 68.3711 99.972 68.332 99.7871C68.293 99.5996 68.2305 99.4355 68.1445 99.2949C68.0586 99.1517 67.9453 99.0397 67.8047 98.959C67.6641 98.8757 67.4909 98.834 67.2852 98.834C67.1029 98.834 66.944 98.8652 66.8086 98.9277C66.6758 98.9902 66.5625 99.0749 66.4688 99.1816C66.375 99.2858 66.2982 99.4056 66.2383 99.541C66.181 99.6738 66.138 99.8118 66.1094 99.9551V100.896C66.151 101.079 66.2188 101.255 66.3125 101.424C66.4089 101.59 66.5365 101.727 66.6953 101.834C66.8568 101.941 67.056 101.994 67.293 101.994C67.4883 101.994 67.6549 101.955 67.793 101.877C67.9336 101.796 68.0469 101.686 68.1328 101.545C68.2214 101.404 68.2865 101.242 68.3281 101.057C68.3698 100.872 68.3906 100.674 68.3906 100.463ZM70.043 102.146C70.043 102.024 70.0807 101.921 70.1562 101.838C70.2344 101.752 70.3464 101.709 70.4922 101.709C70.638 101.709 70.7487 101.752 70.8242 101.838C70.9023 101.921 70.9414 102.024 70.9414 102.146C70.9414 102.266 70.9023 102.368 70.8242 102.451C70.7487 102.535 70.638 102.576 70.4922 102.576C70.3464 102.576 70.2344 102.535 70.1562 102.451C70.0807 102.368 70.043 102.266 70.043 102.146Z" fill="#5C6D72"/>
<path d="M85.3906 96.8418H86.1211L87.9844 101.479L89.8438 96.8418H90.5781L88.2656 102.529H87.6953L85.3906 96.8418ZM85.1523 96.8418H85.7969L85.9023 100.311V102.529H85.1523V96.8418ZM90.168 96.8418H90.8125V102.529H90.0625V100.311L90.168 96.8418ZM94.5195 101.807V99.6309C94.5195 99.4642 94.4857 99.3197 94.418 99.1973C94.3529 99.0723 94.2539 98.9759 94.1211 98.9082C93.9883 98.8405 93.8242 98.8066 93.6289 98.8066C93.4466 98.8066 93.2865 98.8379 93.1484 98.9004C93.013 98.9629 92.9062 99.0449 92.8281 99.1465C92.7526 99.248 92.7148 99.3574 92.7148 99.4746H91.9922C91.9922 99.3236 92.0312 99.1738 92.1094 99.0254C92.1875 98.877 92.2995 98.7428 92.4453 98.623C92.5938 98.5007 92.7708 98.4043 92.9766 98.334C93.1849 98.2611 93.4167 98.2246 93.6719 98.2246C93.9792 98.2246 94.25 98.2767 94.4844 98.3809C94.7214 98.485 94.9062 98.6426 95.0391 98.8535C95.1745 99.0618 95.2422 99.3236 95.2422 99.6387V101.607C95.2422 101.748 95.2539 101.898 95.2773 102.057C95.3034 102.215 95.3411 102.352 95.3906 102.467V102.529H94.6367C94.6003 102.446 94.5716 102.335 94.5508 102.197C94.5299 102.057 94.5195 101.926 94.5195 101.807ZM94.6445 99.9668L94.6523 100.475H93.9219C93.7161 100.475 93.5326 100.492 93.3711 100.525C93.2096 100.557 93.0742 100.605 92.9648 100.67C92.8555 100.735 92.7721 100.817 92.7148 100.916C92.6576 101.012 92.6289 101.126 92.6289 101.256C92.6289 101.389 92.6589 101.51 92.7188 101.619C92.7786 101.729 92.8685 101.816 92.9883 101.881C93.1107 101.943 93.2604 101.975 93.4375 101.975C93.6589 101.975 93.8542 101.928 94.0234 101.834C94.1927 101.74 94.3268 101.626 94.4258 101.49C94.5273 101.355 94.582 101.223 94.5898 101.096L94.8984 101.443C94.8802 101.553 94.8307 101.674 94.75 101.807C94.6693 101.939 94.5612 102.067 94.4258 102.189C94.293 102.309 94.1341 102.41 93.9492 102.49C93.7669 102.568 93.5612 102.607 93.332 102.607C93.0456 102.607 92.7943 102.551 92.5781 102.439C92.3646 102.327 92.1979 102.178 92.0781 101.99C91.9609 101.8 91.9023 101.588 91.9023 101.354C91.9023 101.127 91.9466 100.928 92.0352 100.756C92.1237 100.581 92.2513 100.437 92.418 100.322C92.5846 100.205 92.7852 100.117 93.0195 100.057C93.2539 99.9967 93.5156 99.9668 93.8047 99.9668H94.6445ZM92.4922 97.1738C92.4922 97.0566 92.5286 96.9577 92.6016 96.877C92.6745 96.7962 92.7799 96.7559 92.918 96.7559C93.0586 96.7559 93.1654 96.7962 93.2383 96.877C93.3112 96.9577 93.3477 97.0566 93.3477 97.1738C93.3477 97.2858 93.3112 97.3822 93.2383 97.4629C93.1654 97.541 93.0586 97.5801 92.918 97.5801C92.7799 97.5801 92.6745 97.541 92.6016 97.4629C92.5286 97.3822 92.4922 97.2858 92.4922 97.1738ZM94.1758 97.1816C94.1758 97.0645 94.2109 96.9655 94.2812 96.8848C94.3542 96.804 94.4609 96.7637 94.6016 96.7637C94.7396 96.7637 94.8451 96.804 94.918 96.8848C94.9935 96.9655 95.0312 97.0645 95.0312 97.1816C95.0312 97.2936 94.9935 97.39 94.918 97.4707C94.8451 97.5488 94.7396 97.5879 94.6016 97.5879C94.4609 97.5879 94.3542 97.5488 94.2812 97.4707C94.2109 97.39 94.1758 97.2936 94.1758 97.1816ZM97.1016 98.9668V102.529H96.3789V98.3027H97.082L97.1016 98.9668ZM98.4219 98.2793L98.418 98.9512C98.3581 98.9382 98.3008 98.9303 98.2461 98.9277C98.194 98.9225 98.1341 98.9199 98.0664 98.9199C97.8997 98.9199 97.7526 98.946 97.625 98.998C97.4974 99.0501 97.3893 99.123 97.3008 99.2168C97.2122 99.3105 97.1419 99.4225 97.0898 99.5527C97.0404 99.6803 97.0078 99.821 96.9922 99.9746L96.7891 100.092C96.7891 99.8366 96.8138 99.597 96.8633 99.373C96.9154 99.1491 96.9948 98.9512 97.1016 98.7793C97.2083 98.6048 97.3438 98.4694 97.5078 98.373C97.6745 98.2741 97.8724 98.2246 98.1016 98.2246C98.1536 98.2246 98.2135 98.2311 98.2812 98.2441C98.349 98.2546 98.3958 98.2663 98.4219 98.2793ZM102.238 101.936V102.529H99.1641V101.936H102.238ZM102.125 98.8145L99.3281 102.529H98.8867V101.998L101.664 98.3027H102.125V98.8145ZM101.805 98.3027V98.9004H98.918V98.3027H101.805Z" fill="#5C6D72"/>
<path d="M118.242 97.3457L116.359 102.529H115.59L117.758 96.8418H118.254L118.242 97.3457ZM119.82 102.529L117.934 97.3457L117.922 96.8418H118.418L120.594 102.529H119.82ZM119.723 100.424V101.041H116.527V100.424H119.723ZM121.969 99.1152V104.154H121.242V98.3027H121.906L121.969 99.1152ZM124.816 100.381V100.463C124.816 100.77 124.78 101.055 124.707 101.318C124.634 101.579 124.527 101.805 124.387 101.998C124.249 102.191 124.078 102.34 123.875 102.447C123.672 102.554 123.439 102.607 123.176 102.607C122.908 102.607 122.671 102.563 122.465 102.475C122.259 102.386 122.085 102.257 121.941 102.088C121.798 101.919 121.684 101.715 121.598 101.479C121.514 101.242 121.457 100.975 121.426 100.678V100.24C121.457 99.9277 121.516 99.6478 121.602 99.4004C121.688 99.153 121.801 98.9421 121.941 98.7676C122.085 98.5905 122.258 98.4564 122.461 98.3652C122.664 98.2715 122.898 98.2246 123.164 98.2246C123.43 98.2246 123.665 98.2767 123.871 98.3809C124.077 98.4824 124.25 98.6283 124.391 98.8184C124.531 99.0085 124.637 99.2363 124.707 99.502C124.78 99.765 124.816 100.058 124.816 100.381ZM124.09 100.463V100.381C124.09 100.17 124.068 99.972 124.023 99.7871C123.979 99.5996 123.91 99.4355 123.816 99.2949C123.725 99.1517 123.608 99.0397 123.465 98.959C123.322 98.8757 123.151 98.834 122.953 98.834C122.771 98.834 122.612 98.8652 122.477 98.9277C122.344 98.9902 122.23 99.0749 122.137 99.1816C122.043 99.2858 121.966 99.4056 121.906 99.541C121.849 99.6738 121.806 99.8118 121.777 99.9551V100.967C121.829 101.149 121.902 101.321 121.996 101.482C122.09 101.641 122.215 101.77 122.371 101.869C122.527 101.965 122.724 102.014 122.961 102.014C123.156 102.014 123.324 101.973 123.465 101.893C123.608 101.809 123.725 101.696 123.816 101.553C123.91 101.41 123.979 101.245 124.023 101.061C124.068 100.873 124.09 100.674 124.09 100.463ZM126.461 98.9668V102.529H125.738V98.3027H126.441L126.461 98.9668ZM127.781 98.2793L127.777 98.9512C127.717 98.9382 127.66 98.9303 127.605 98.9277C127.553 98.9225 127.493 98.9199 127.426 98.9199C127.259 98.9199 127.112 98.946 126.984 98.998C126.857 99.0501 126.749 99.123 126.66 99.2168C126.572 99.3105 126.501 99.4225 126.449 99.5527C126.4 99.6803 126.367 99.821 126.352 99.9746L126.148 100.092C126.148 99.8366 126.173 99.597 126.223 99.373C126.275 99.1491 126.354 98.9512 126.461 98.7793C126.568 98.6048 126.703 98.4694 126.867 98.373C127.034 98.2741 127.232 98.2246 127.461 98.2246C127.513 98.2246 127.573 98.2311 127.641 98.2441C127.708 98.2546 127.755 98.2663 127.781 98.2793ZM127.977 102.146C127.977 102.024 128.014 101.921 128.09 101.838C128.168 101.752 128.28 101.709 128.426 101.709C128.572 101.709 128.682 101.752 128.758 101.838C128.836 101.921 128.875 102.024 128.875 102.146C128.875 102.266 128.836 102.368 128.758 102.451C128.682 102.535 128.572 102.576 128.426 102.576C128.28 102.576 128.168 102.535 128.09 102.451C128.014 102.368 127.977 102.266 127.977 102.146Z" fill="#5C6D72"/>
<path d="M143.258 96.8418H143.988L145.852 101.479L147.711 96.8418H148.445L146.133 102.529H145.562L143.258 96.8418ZM143.02 96.8418H143.664L143.77 100.311V102.529H143.02V96.8418ZM148.035 96.8418H148.68V102.529H147.93V100.311L148.035 96.8418ZM152.387 101.807V99.6309C152.387 99.4642 152.353 99.3197 152.285 99.1973C152.22 99.0723 152.121 98.9759 151.988 98.9082C151.855 98.8405 151.691 98.8066 151.496 98.8066C151.314 98.8066 151.154 98.8379 151.016 98.9004C150.88 98.9629 150.773 99.0449 150.695 99.1465C150.62 99.248 150.582 99.3574 150.582 99.4746H149.859C149.859 99.3236 149.898 99.1738 149.977 99.0254C150.055 98.877 150.167 98.7428 150.312 98.623C150.461 98.5007 150.638 98.4043 150.844 98.334C151.052 98.2611 151.284 98.2246 151.539 98.2246C151.846 98.2246 152.117 98.2767 152.352 98.3809C152.589 98.485 152.773 98.6426 152.906 98.8535C153.042 99.0618 153.109 99.3236 153.109 99.6387V101.607C153.109 101.748 153.121 101.898 153.145 102.057C153.171 102.215 153.208 102.352 153.258 102.467V102.529H152.504C152.467 102.446 152.439 102.335 152.418 102.197C152.397 102.057 152.387 101.926 152.387 101.807ZM152.512 99.9668L152.52 100.475H151.789C151.583 100.475 151.4 100.492 151.238 100.525C151.077 100.557 150.941 100.605 150.832 100.67C150.723 100.735 150.639 100.817 150.582 100.916C150.525 101.012 150.496 101.126 150.496 101.256C150.496 101.389 150.526 101.51 150.586 101.619C150.646 101.729 150.736 101.816 150.855 101.881C150.978 101.943 151.128 101.975 151.305 101.975C151.526 101.975 151.721 101.928 151.891 101.834C152.06 101.74 152.194 101.626 152.293 101.49C152.395 101.355 152.449 101.223 152.457 101.096L152.766 101.443C152.747 101.553 152.698 101.674 152.617 101.807C152.536 101.939 152.428 102.067 152.293 102.189C152.16 102.309 152.001 102.41 151.816 102.49C151.634 102.568 151.428 102.607 151.199 102.607C150.913 102.607 150.661 102.551 150.445 102.439C150.232 102.327 150.065 102.178 149.945 101.99C149.828 101.8 149.77 101.588 149.77 101.354C149.77 101.127 149.814 100.928 149.902 100.756C149.991 100.581 150.118 100.437 150.285 100.322C150.452 100.205 150.652 100.117 150.887 100.057C151.121 99.9967 151.383 99.9668 151.672 99.9668H152.512ZM155.031 98.3027V102.529H154.305V98.3027H155.031ZM154.25 97.1816C154.25 97.0645 154.285 96.9655 154.355 96.8848C154.428 96.804 154.535 96.7637 154.676 96.7637C154.814 96.7637 154.919 96.804 154.992 96.8848C155.068 96.9655 155.105 97.0645 155.105 97.1816C155.105 97.2936 155.068 97.39 154.992 97.4707C154.919 97.5488 154.814 97.5879 154.676 97.5879C154.535 97.5879 154.428 97.5488 154.355 97.4707C154.285 97.39 154.25 97.2936 154.25 97.1816Z" fill="#5C6D72"/>
<path d="M171.031 100.783V96.8418H172.199V100.783C172.199 101.163 172.116 101.49 171.949 101.764C171.783 102.035 171.555 102.243 171.266 102.389C170.979 102.535 170.656 102.607 170.297 102.607C169.924 102.607 169.595 102.545 169.309 102.42C169.022 102.295 168.797 102.104 168.633 101.846C168.469 101.585 168.387 101.256 168.387 100.857H169.562C169.562 101.066 169.591 101.231 169.648 101.354C169.708 101.476 169.793 101.563 169.902 101.615C170.012 101.667 170.143 101.693 170.297 101.693C170.445 101.693 170.574 101.658 170.684 101.588C170.793 101.518 170.878 101.415 170.938 101.279C171 101.144 171.031 100.979 171.031 100.783ZM175.629 101.518V98.3027H176.754V102.529H175.695L175.629 101.518ZM175.754 100.65L176.086 100.643C176.086 100.924 176.053 101.186 175.988 101.428C175.923 101.667 175.826 101.876 175.695 102.053C175.565 102.227 175.401 102.364 175.203 102.463C175.005 102.559 174.772 102.607 174.504 102.607C174.298 102.607 174.108 102.579 173.934 102.521C173.762 102.462 173.613 102.369 173.488 102.244C173.366 102.117 173.27 101.954 173.199 101.756C173.132 101.555 173.098 101.314 173.098 101.033V98.3027H174.223V101.041C174.223 101.166 174.237 101.271 174.266 101.357C174.297 101.443 174.34 101.514 174.395 101.568C174.449 101.623 174.513 101.662 174.586 101.686C174.661 101.709 174.745 101.721 174.836 101.721C175.068 101.721 175.25 101.674 175.383 101.58C175.518 101.486 175.613 101.359 175.668 101.197C175.725 101.033 175.754 100.851 175.754 100.65ZM178.715 99.2051V102.529H177.59V98.3027H178.645L178.715 99.2051ZM178.551 100.268H178.246C178.246 99.9551 178.286 99.6738 178.367 99.4238C178.448 99.1712 178.561 98.9564 178.707 98.7793C178.853 98.5996 179.026 98.4629 179.227 98.3691C179.43 98.2728 179.656 98.2246 179.906 98.2246C180.104 98.2246 180.285 98.2533 180.449 98.3105C180.613 98.3678 180.754 98.459 180.871 98.584C180.991 98.709 181.082 98.8743 181.145 99.0801C181.21 99.2858 181.242 99.5371 181.242 99.834V102.529H180.109V99.8301C180.109 99.6426 180.083 99.4967 180.031 99.3926C179.979 99.2884 179.902 99.2155 179.801 99.1738C179.702 99.1296 179.579 99.1074 179.434 99.1074C179.283 99.1074 179.151 99.1374 179.039 99.1973C178.93 99.2572 178.839 99.3405 178.766 99.4473C178.695 99.5514 178.642 99.6738 178.605 99.8145C178.569 99.9551 178.551 100.106 178.551 100.268ZM183.285 98.3027V102.529H182.156V98.3027H183.285ZM182.086 97.2012C182.086 97.0371 182.143 96.9017 182.258 96.7949C182.372 96.6882 182.526 96.6348 182.719 96.6348C182.909 96.6348 183.061 96.6882 183.176 96.7949C183.293 96.9017 183.352 97.0371 183.352 97.2012C183.352 97.3652 183.293 97.5007 183.176 97.6074C183.061 97.7142 182.909 97.7676 182.719 97.7676C182.526 97.7676 182.372 97.7142 182.258 97.6074C182.143 97.5007 182.086 97.3652 182.086 97.2012Z" fill="#6C54FF"/>
<path opacity="0.1" d="M6.06055 88.0254H177" stroke="#454459"/>
<path d="M59.6523 131.629V133H55.3574V131.629H59.6523ZM55.9258 124.469V133H54.168V124.469H55.9258ZM63.4727 133.117C62.9805 133.117 62.5391 133.039 62.1484 132.883C61.7578 132.723 61.4258 132.502 61.1523 132.221C60.8828 131.939 60.6758 131.613 60.5312 131.242C60.3867 130.867 60.3145 130.469 60.3145 130.047V129.812C60.3145 129.332 60.3828 128.893 60.5195 128.494C60.6562 128.096 60.8516 127.75 61.1055 127.457C61.3633 127.164 61.6758 126.939 62.043 126.783C62.4102 126.623 62.8242 126.543 63.2852 126.543C63.7344 126.543 64.1328 126.617 64.4805 126.766C64.8281 126.914 65.1191 127.125 65.3535 127.398C65.5918 127.672 65.7715 128 65.8926 128.383C66.0137 128.762 66.0742 129.184 66.0742 129.648V130.352H61.0352V129.227H64.416V129.098C64.416 128.863 64.373 128.654 64.2871 128.471C64.2051 128.283 64.0801 128.135 63.9121 128.025C63.7441 127.916 63.5293 127.861 63.2676 127.861C63.0449 127.861 62.8535 127.91 62.6934 128.008C62.5332 128.105 62.4023 128.242 62.3008 128.418C62.2031 128.594 62.1289 128.801 62.0781 129.039C62.0312 129.273 62.0078 129.531 62.0078 129.812V130.047C62.0078 130.301 62.043 130.535 62.1133 130.75C62.1875 130.965 62.291 131.15 62.4238 131.307C62.5605 131.463 62.7246 131.584 62.916 131.67C63.1113 131.756 63.332 131.799 63.5781 131.799C63.8828 131.799 64.166 131.74 64.4277 131.623C64.6934 131.502 64.9219 131.32 65.1133 131.078L65.9336 131.969C65.8008 132.16 65.6191 132.344 65.3887 132.52C65.1621 132.695 64.8887 132.84 64.5684 132.953C64.248 133.062 63.8828 133.117 63.4727 133.117ZM68.7227 128.043V133H67.0352V126.66H68.623L68.7227 128.043ZM70.6328 126.619L70.6035 128.184C70.5215 128.172 70.4219 128.162 70.3047 128.154C70.1914 128.143 70.0879 128.137 69.9941 128.137C69.7559 128.137 69.5488 128.168 69.373 128.23C69.2012 128.289 69.0566 128.377 68.9395 128.494C68.8262 128.611 68.7402 128.754 68.6816 128.922C68.627 129.09 68.5957 129.281 68.5879 129.496L68.248 129.391C68.248 128.98 68.2891 128.604 68.3711 128.26C68.4531 127.912 68.5723 127.609 68.7285 127.352C68.8887 127.094 69.084 126.895 69.3145 126.754C69.5449 126.613 69.8086 126.543 70.1055 126.543C70.1992 126.543 70.2949 126.551 70.3926 126.566C70.4902 126.578 70.5703 126.596 70.6328 126.619ZM73.082 128.014V133H71.3945V126.66H72.9766L73.082 128.014ZM72.8359 129.607H72.3789C72.3789 129.139 72.4395 128.717 72.5605 128.342C72.6816 127.963 72.8516 127.641 73.0703 127.375C73.2891 127.105 73.5488 126.9 73.8496 126.76C74.1543 126.615 74.4941 126.543 74.8691 126.543C75.166 126.543 75.4375 126.586 75.6836 126.672C75.9297 126.758 76.1406 126.895 76.3164 127.082C76.4961 127.27 76.6328 127.518 76.7266 127.826C76.8242 128.135 76.873 128.512 76.873 128.957V133H75.1738V128.951C75.1738 128.67 75.1348 128.451 75.0566 128.295C74.9785 128.139 74.8633 128.029 74.7109 127.967C74.5625 127.9 74.3789 127.867 74.1602 127.867C73.9336 127.867 73.7363 127.912 73.5684 128.002C73.4043 128.092 73.2676 128.217 73.1582 128.377C73.0527 128.533 72.9727 128.717 72.918 128.928C72.8633 129.139 72.8359 129.365 72.8359 129.607ZM81.5781 131.57V128.746C81.5781 128.543 81.5449 128.369 81.4785 128.225C81.4121 128.076 81.3086 127.961 81.168 127.879C81.0312 127.797 80.8535 127.756 80.6348 127.756C80.4473 127.756 80.2852 127.789 80.1484 127.855C80.0117 127.918 79.9062 128.01 79.832 128.131C79.7578 128.248 79.7207 128.387 79.7207 128.547H78.0332C78.0332 128.277 78.0957 128.021 78.2207 127.779C78.3457 127.537 78.5273 127.324 78.7656 127.141C79.0039 126.953 79.2871 126.807 79.6152 126.701C79.9473 126.596 80.3184 126.543 80.7285 126.543C81.2207 126.543 81.6582 126.625 82.041 126.789C82.4238 126.953 82.7246 127.199 82.9434 127.527C83.166 127.855 83.2773 128.266 83.2773 128.758V131.471C83.2773 131.818 83.2988 132.104 83.3418 132.326C83.3848 132.545 83.4473 132.736 83.5293 132.9V133H81.8242C81.7422 132.828 81.6797 132.613 81.6367 132.355C81.5977 132.094 81.5781 131.832 81.5781 131.57ZM81.8008 129.139L81.8125 130.094H80.8691C80.6465 130.094 80.4531 130.119 80.2891 130.17C80.125 130.221 79.9902 130.293 79.8848 130.387C79.7793 130.477 79.7012 130.582 79.6504 130.703C79.6035 130.824 79.5801 130.957 79.5801 131.102C79.5801 131.246 79.6133 131.377 79.6797 131.494C79.7461 131.607 79.8418 131.697 79.9668 131.764C80.0918 131.826 80.2383 131.857 80.4062 131.857C80.6602 131.857 80.8809 131.807 81.0684 131.705C81.2559 131.604 81.4004 131.479 81.502 131.33C81.6074 131.182 81.6621 131.041 81.666 130.908L82.1113 131.623C82.0488 131.783 81.9629 131.949 81.8535 132.121C81.748 132.293 81.6133 132.455 81.4492 132.607C81.2852 132.756 81.0879 132.879 80.8574 132.977C80.627 133.07 80.3535 133.117 80.0371 133.117C79.6348 133.117 79.2695 133.037 78.9414 132.877C78.6172 132.713 78.3594 132.488 78.168 132.203C77.9805 131.914 77.8867 131.586 77.8867 131.219C77.8867 130.887 77.9492 130.592 78.0742 130.334C78.1992 130.076 78.3828 129.859 78.625 129.684C78.8711 129.504 79.1777 129.369 79.5449 129.279C79.9121 129.186 80.3379 129.139 80.8223 129.139H81.8008ZM86.2656 123.994V133H84.5781V123.994H86.2656ZM90.2617 126.66L87.5078 129.801L86.0312 131.295L85.416 130.076L86.5879 128.588L88.2344 126.66H90.2617ZM88.5098 133L86.6348 130.07L87.8008 129.051L90.4551 133H88.5098ZM94.0938 126.66V127.855H90.4023V126.66H94.0938ZM91.3164 125.096H93.0039V131.09C93.0039 131.273 93.0273 131.414 93.0742 131.512C93.125 131.609 93.1992 131.678 93.2969 131.717C93.3945 131.752 93.5176 131.77 93.666 131.77C93.7715 131.77 93.8652 131.766 93.9473 131.758C94.0332 131.746 94.1055 131.734 94.1641 131.723L94.1699 132.965C94.0254 133.012 93.8691 133.049 93.7012 133.076C93.5332 133.104 93.3477 133.117 93.1445 133.117C92.7734 133.117 92.4492 133.057 92.1719 132.936C91.8984 132.811 91.6875 132.611 91.5391 132.338C91.3906 132.064 91.3164 131.705 91.3164 131.26V125.096ZM96.8359 126.66V133H95.1426V126.66H96.8359ZM95.0371 125.008C95.0371 124.762 95.123 124.559 95.2949 124.398C95.4668 124.238 95.6973 124.158 95.9863 124.158C96.2715 124.158 96.5 124.238 96.6719 124.398C96.8477 124.559 96.9355 124.762 96.9355 125.008C96.9355 125.254 96.8477 125.457 96.6719 125.617C96.5 125.777 96.2715 125.857 95.9863 125.857C95.6973 125.857 95.4668 125.777 95.2949 125.617C95.123 125.457 95.0371 125.254 95.0371 125.008ZM100.387 131.77L101.793 126.66H103.557L101.418 133H100.352L100.387 131.77ZM99.4199 126.66L100.832 131.775L100.861 133H99.7891L97.6504 126.66H99.4199ZM106.094 126.66V133H104.4V126.66H106.094ZM104.295 125.008C104.295 124.762 104.381 124.559 104.553 124.398C104.725 124.238 104.955 124.158 105.244 124.158C105.529 124.158 105.758 124.238 105.93 124.398C106.105 124.559 106.193 124.762 106.193 125.008C106.193 125.254 106.105 125.457 105.93 125.617C105.758 125.777 105.529 125.857 105.244 125.857C104.955 125.857 104.725 125.777 104.553 125.617C104.381 125.457 104.295 125.254 104.295 125.008ZM110.594 126.66V127.855H106.902V126.66H110.594ZM107.816 125.096H109.504V131.09C109.504 131.273 109.527 131.414 109.574 131.512C109.625 131.609 109.699 131.678 109.797 131.717C109.895 131.752 110.018 131.77 110.166 131.77C110.271 131.77 110.365 131.766 110.447 131.758C110.533 131.746 110.605 131.734 110.664 131.723L110.67 132.965C110.525 133.012 110.369 133.049 110.201 133.076C110.033 133.104 109.848 133.117 109.645 133.117C109.273 133.117 108.949 133.057 108.672 132.936C108.398 132.811 108.188 132.611 108.039 132.338C107.891 132.064 107.816 131.705 107.816 131.26V125.096ZM114.977 131.57V128.746C114.977 128.543 114.943 128.369 114.877 128.225C114.811 128.076 114.707 127.961 114.566 127.879C114.43 127.797 114.252 127.756 114.033 127.756C113.846 127.756 113.684 127.789 113.547 127.855C113.41 127.918 113.305 128.01 113.23 128.131C113.156 128.248 113.119 128.387 113.119 128.547H111.432C111.432 128.277 111.494 128.021 111.619 127.779C111.744 127.537 111.926 127.324 112.164 127.141C112.402 126.953 112.686 126.807 113.014 126.701C113.346 126.596 113.717 126.543 114.127 126.543C114.619 126.543 115.057 126.625 115.439 126.789C115.822 126.953 116.123 127.199 116.342 127.527C116.564 127.855 116.676 128.266 116.676 128.758V131.471C116.676 131.818 116.697 132.104 116.74 132.326C116.783 132.545 116.846 132.736 116.928 132.9V133H115.223C115.141 132.828 115.078 132.613 115.035 132.355C114.996 132.094 114.977 131.832 114.977 131.57ZM115.199 129.139L115.211 130.094H114.268C114.045 130.094 113.852 130.119 113.688 130.17C113.523 130.221 113.389 130.293 113.283 130.387C113.178 130.477 113.1 130.582 113.049 130.703C113.002 130.824 112.979 130.957 112.979 131.102C112.979 131.246 113.012 131.377 113.078 131.494C113.145 131.607 113.24 131.697 113.365 131.764C113.49 131.826 113.637 131.857 113.805 131.857C114.059 131.857 114.279 131.807 114.467 131.705C114.654 131.604 114.799 131.479 114.9 131.33C115.006 131.182 115.061 131.041 115.064 130.908L115.51 131.623C115.447 131.783 115.361 131.949 115.252 132.121C115.146 132.293 115.012 132.455 114.848 132.607C114.684 132.756 114.486 132.879 114.256 132.977C114.025 133.07 113.752 133.117 113.436 133.117C113.033 133.117 112.668 133.037 112.34 132.877C112.016 132.713 111.758 132.488 111.566 132.203C111.379 131.914 111.285 131.586 111.285 131.219C111.285 130.887 111.348 130.592 111.473 130.334C111.598 130.076 111.781 129.859 112.023 129.684C112.27 129.504 112.576 129.369 112.943 129.279C113.311 129.186 113.736 129.139 114.221 129.139H115.199ZM111.877 124.99C111.877 124.787 111.953 124.615 112.105 124.475C112.262 124.33 112.453 124.258 112.68 124.258C112.914 124.258 113.107 124.33 113.26 124.475C113.412 124.615 113.488 124.787 113.488 124.99C113.488 125.193 113.412 125.365 113.26 125.506C113.107 125.646 112.914 125.717 112.68 125.717C112.453 125.717 112.262 125.646 112.105 125.506C111.953 125.365 111.877 125.193 111.877 124.99ZM114.754 124.996C114.754 124.789 114.83 124.615 114.982 124.475C115.135 124.334 115.326 124.264 115.557 124.264C115.787 124.264 115.979 124.334 116.131 124.475C116.287 124.615 116.365 124.789 116.365 124.996C116.365 125.199 116.287 125.371 116.131 125.512C115.979 125.648 115.787 125.717 115.557 125.717C115.326 125.717 115.135 125.648 114.982 125.512C114.83 125.371 114.754 125.199 114.754 124.996ZM121.082 126.66V127.855H117.391V126.66H121.082ZM118.305 125.096H119.992V131.09C119.992 131.273 120.016 131.414 120.062 131.512C120.113 131.609 120.188 131.678 120.285 131.717C120.383 131.752 120.506 131.77 120.654 131.77C120.76 131.77 120.854 131.766 120.936 131.758C121.021 131.746 121.094 131.734 121.152 131.723L121.158 132.965C121.014 133.012 120.857 133.049 120.689 133.076C120.521 133.104 120.336 133.117 120.133 133.117C119.762 133.117 119.438 133.057 119.16 132.936C118.887 132.811 118.676 132.611 118.527 132.338C118.379 132.064 118.305 131.705 118.305 131.26V125.096ZM124.961 133.117C124.469 133.117 124.027 133.039 123.637 132.883C123.246 132.723 122.914 132.502 122.641 132.221C122.371 131.939 122.164 131.613 122.02 131.242C121.875 130.867 121.803 130.469 121.803 130.047V129.812C121.803 129.332 121.871 128.893 122.008 128.494C122.145 128.096 122.34 127.75 122.594 127.457C122.852 127.164 123.164 126.939 123.531 126.783C123.898 126.623 124.312 126.543 124.773 126.543C125.223 126.543 125.621 126.617 125.969 126.766C126.316 126.914 126.607 127.125 126.842 127.398C127.08 127.672 127.26 128 127.381 128.383C127.502 128.762 127.562 129.184 127.562 129.648V130.352H122.523V129.227H125.904V129.098C125.904 128.863 125.861 128.654 125.775 128.471C125.693 128.283 125.568 128.135 125.4 128.025C125.232 127.916 125.018 127.861 124.756 127.861C124.533 127.861 124.342 127.91 124.182 128.008C124.021 128.105 123.891 128.242 123.789 128.418C123.691 128.594 123.617 128.801 123.566 129.039C123.52 129.273 123.496 129.531 123.496 129.812V130.047C123.496 130.301 123.531 130.535 123.602 130.75C123.676 130.965 123.779 131.15 123.912 131.307C124.049 131.463 124.213 131.584 124.404 131.67C124.6 131.756 124.82 131.799 125.066 131.799C125.371 131.799 125.654 131.74 125.916 131.623C126.182 131.502 126.41 131.32 126.602 131.078L127.422 131.969C127.289 132.16 127.107 132.344 126.877 132.52C126.65 132.695 126.377 132.84 126.057 132.953C125.736 133.062 125.371 133.117 124.961 133.117ZM130.176 128.014V133H128.488V126.66H130.07L130.176 128.014ZM129.93 129.607H129.473C129.473 129.139 129.533 128.717 129.654 128.342C129.775 127.963 129.945 127.641 130.164 127.375C130.383 127.105 130.643 126.9 130.943 126.76C131.248 126.615 131.588 126.543 131.963 126.543C132.26 126.543 132.531 126.586 132.777 126.672C133.023 126.758 133.234 126.895 133.41 127.082C133.59 127.27 133.727 127.518 133.82 127.826C133.918 128.135 133.967 128.512 133.967 128.957V133H132.268V128.951C132.268 128.67 132.229 128.451 132.15 128.295C132.072 128.139 131.957 128.029 131.805 127.967C131.656 127.9 131.473 127.867 131.254 127.867C131.027 127.867 130.83 127.912 130.662 128.002C130.498 128.092 130.361 128.217 130.252 128.377C130.146 128.533 130.066 128.717 130.012 128.928C129.957 129.139 129.93 129.365 129.93 129.607Z" fill="#5C6D72"/>
<defs>
<filter id="filter0_d_285_544" x="147" y="0" width="60" height="60" filterUnits="userSpaceOnUse" color-interpolation-filters="sRGB">
<feFlood flood-opacity="0" result="BackgroundImageFix"/>
<feColorMatrix in="SourceAlpha" type="matrix" values="0 0 0 0 0 0 0 0 0 0 0 0 0 0 0 0 0 0 127 0" result="hardAlpha"/>
<feOffset dy="5"/>
<feGaussianBlur stdDeviation="12.5"/>
<feColorMatrix type="matrix" values="0 0 0 0 0 0 0 0 0 0 0 0 0 0 0 0 0 0 0.1 0"/>
<feBlend mode="normal" in2="BackgroundImageFix" result="effect1_dropShadow_285_544"/>
<feBlend mode="normal" in="SourceGraphic" in2="effect1_dropShadow_285_544" result="shape"/>
</filter>
<linearGradient id="paint0_linear_285_544" x1="91.5" y1="17.8685" x2="91.5" y2="87.9999" gradientUnits="userSpaceOnUse">
<stop stop-color="#ED6C36"/>
<stop offset="1" stop-color="#ED6C36" stop-opacity="0"/>
</linearGradient>
<linearGradient id="paint1_linear_285_544" x1="91.9228" y1="17.865" x2="91.9228" y2="53.4794" gradientUnits="userSpaceOnUse">
<stop stop-color="#6C54FF"/>
<stop offset="1" stop-color="#8D79F6"/>
</linearGradient>
</defs>
</svg>
